<svg width="10" height="10" viewBox="0 0 10 10" fill="none" xmlns="http://www.w3.org/2000/svg">
<path fill-rule="evenodd" clip-rule="evenodd" d="M2.09074 1.12095C1.82295 0.853165 1.38878 0.853165 1.12099 1.12095C0.853202 1.38874 0.853202 1.82291 1.12099 2.0907L3.32318 4.29289C3.7137 4.68341 3.7137 5.31658 3.32318 5.7071L1.12105 7.90923C0.853259 8.17702 0.853259 8.61119 1.12105 8.87898C1.38884 9.14677 1.82301 9.14677 2.09079 8.87898L4.29293 6.67685C4.68345 6.28632 5.31661 6.28632 5.70714 6.67685L7.90922 8.87892C8.177 9.14671 8.61117 9.14671 8.87896 8.87892C9.14675 8.61114 9.14675 8.17697 8.87896 7.90918L6.67689 5.7071C6.28636 5.31658 6.28636 4.68341 6.67689 4.29289L8.87902 2.09076C9.14681 1.82297 9.14681 1.3888 8.87902 1.12101C8.61123 0.853222 8.17706 0.853221 7.90927 1.12101L5.70714 3.32314C5.31662 3.71367 4.68345 3.71367 4.29293 3.32314L2.09074 1.12095Z" fill="#FF8303"/>
</svg>
